<svg width="695" height="132" viewBox="0 0 695 132" fill="none" xmlns="http://www.w3.org/2000/svg">
<mask id="path-1-outside-1_508_37" maskUnits="userSpaceOnUse" x="123" y="33" width="567" height="100" fill="black">
<rect fill="white" x="123" y="33" width="567" height="100"/>
<path d="M145.992 39.28C153.096 39.28 159.304 40.656 164.616 43.408C169.992 46.096 174.12 50 177 55.12C179.944 60.176 181.416 66.096 181.416 72.88C181.416 79.664 179.944 85.552 177 90.544C174.12 95.536 169.992 99.376 164.616 102.064C159.304 104.688 153.096 106 145.992 106H124.2V39.28H145.992ZM145.992 97.072C153.8 97.072 159.784 94.96 163.944 90.736C168.104 86.512 170.184 80.56 170.184 72.88C170.184 65.136 168.104 59.088 163.944 54.736C159.784 50.384 153.8 48.208 145.992 48.208H135.144V97.072H145.992ZM188.615 79.312C188.615 74 189.703 69.296 191.879 65.2C194.119 61.104 197.127 57.936 200.903 55.696C204.743 53.392 208.967 52.24 213.575 52.24C217.735 52.24 221.351 53.072 224.423 54.736C227.559 56.336 230.055 58.352 231.911 60.784V53.104H242.951V106H231.911V98.128C230.055 100.624 227.527 102.704 224.327 104.368C221.127 106.032 217.479 106.864 213.383 106.864C208.839 106.864 204.679 105.712 200.903 103.408C197.127 101.04 194.119 97.776 191.879 93.616C189.703 89.392 188.615 84.624 188.615 79.312ZM231.911 79.504C231.911 75.856 231.143 72.688 229.607 70C228.135 67.312 226.183 65.264 223.751 63.856C221.319 62.448 218.695 61.744 215.879 61.744C213.063 61.744 210.439 62.448 208.007 63.856C205.575 65.2 203.591 67.216 202.055 69.904C200.583 72.528 199.847 75.664 199.847 79.312C199.847 82.96 200.583 86.16 202.055 88.912C203.591 91.664 205.575 93.776 208.007 95.248C210.503 96.656 213.127 97.36 215.879 97.36C218.695 97.36 221.319 96.656 223.751 95.248C226.183 93.84 228.135 91.792 229.607 89.104C231.143 86.352 231.911 83.152 231.911 79.504ZM270.093 62.032V91.312C270.093 93.296 270.541 94.736 271.437 95.632C272.397 96.464 273.997 96.88 276.237 96.88H282.957V106H274.317C269.389 106 265.613 104.848 262.989 102.544C260.365 100.24 259.053 96.496 259.053 91.312V62.032H252.813V53.104H259.053V39.952H270.093V53.104H282.957V62.032H270.093ZM289.396 79.312C289.396 74 290.484 69.296 292.66 65.2C294.9 61.104 297.908 57.936 301.684 55.696C305.524 53.392 309.748 52.24 314.356 52.24C318.516 52.24 322.132 53.072 325.204 54.736C328.34 56.336 330.836 58.352 332.692 60.784V53.104H343.732V106H332.692V98.128C330.836 100.624 328.308 102.704 325.108 104.368C321.908 106.032 318.26 106.864 314.164 106.864C309.62 106.864 305.46 105.712 301.684 103.408C297.908 101.04 294.9 97.776 292.66 93.616C290.484 89.392 289.396 84.624 289.396 79.312ZM332.692 79.504C332.692 75.856 331.924 72.688 330.388 70C328.916 67.312 326.964 65.264 324.532 63.856C322.1 62.448 319.476 61.744 316.66 61.744C313.844 61.744 311.22 62.448 308.788 63.856C306.356 65.2 304.372 67.216 302.836 69.904C301.364 72.528 300.628 75.664 300.628 79.312C300.628 82.96 301.364 86.16 302.836 88.912C304.372 91.664 306.356 93.776 308.788 95.248C311.284 96.656 313.908 97.36 316.66 97.36C319.476 97.36 322.1 96.656 324.532 95.248C326.964 93.84 328.916 91.792 330.388 89.104C331.924 86.352 332.692 83.152 332.692 79.504ZM380.09 106.672C375.61 106.672 371.578 105.904 367.994 104.368C364.41 102.768 361.594 100.528 359.546 97.648C357.498 94.768 356.474 91.408 356.474 87.568H368.186C368.442 90.448 369.562 92.816 371.546 94.672C373.594 96.528 376.442 97.456 380.09 97.456C383.866 97.456 386.81 96.56 388.922 94.768C391.034 92.912 392.09 90.544 392.09 87.664C392.09 85.424 391.418 83.6 390.074 82.192C388.794 80.784 387.162 79.696 385.178 78.928C383.258 78.16 380.57 77.328 377.114 76.432C372.762 75.28 369.21 74.128 366.458 72.976C363.77 71.76 361.466 69.904 359.546 67.408C357.626 64.912 356.666 61.584 356.666 57.424C356.666 53.584 357.626 50.224 359.546 47.344C361.466 44.464 364.154 42.256 367.61 40.72C371.066 39.184 375.066 38.416 379.61 38.416C386.074 38.416 391.354 40.048 395.45 43.312C399.61 46.512 401.914 50.928 402.362 56.56H390.266C390.074 54.128 388.922 52.048 386.81 50.32C384.698 48.592 381.914 47.728 378.458 47.728C375.322 47.728 372.762 48.528 370.778 50.128C368.794 51.728 367.802 54.032 367.802 57.04C367.802 59.088 368.41 60.784 369.626 62.128C370.906 63.408 372.506 64.432 374.426 65.2C376.346 65.968 378.97 66.8 382.298 67.696C386.714 68.912 390.298 70.128 393.05 71.344C395.866 72.56 398.234 74.448 400.154 77.008C402.138 79.504 403.13 82.864 403.13 87.088C403.13 90.48 402.202 93.68 400.346 96.688C398.554 99.696 395.898 102.128 392.378 103.984C388.922 105.776 384.826 106.672 380.09 106.672ZM426.988 60.88C428.844 58.448 431.372 56.4 434.572 54.736C437.772 53.072 441.388 52.24 445.42 52.24C450.028 52.24 454.22 53.392 457.996 55.696C461.836 57.936 464.844 61.104 467.02 65.2C469.196 69.296 470.284 74 470.284 79.312C470.284 84.624 469.196 89.392 467.02 93.616C464.844 97.776 461.836 101.04 457.996 103.408C454.22 105.712 450.028 106.864 445.42 106.864C441.388 106.864 437.804 106.064 434.668 104.464C431.532 102.8 428.972 100.752 426.988 98.32V131.152H416.044V53.104H426.988V60.88ZM459.148 79.312C459.148 75.664 458.38 72.528 456.844 69.904C455.372 67.216 453.388 65.2 450.892 63.856C448.46 62.448 445.836 61.744 443.02 61.744C440.268 61.744 437.644 62.448 435.148 63.856C432.716 65.264 430.732 67.312 429.196 70C427.724 72.688 426.988 75.856 426.988 79.504C426.988 83.152 427.724 86.352 429.196 89.104C430.732 91.792 432.716 93.84 435.148 95.248C437.644 96.656 440.268 97.36 443.02 97.36C445.836 97.36 448.46 96.656 450.892 95.248C453.388 93.776 455.372 91.664 456.844 88.912C458.38 86.16 459.148 82.96 459.148 79.312ZM508.466 52.24C512.498 52.24 516.082 53.104 519.218 54.832C522.418 56.56 524.914 59.12 526.706 62.512C528.562 65.904 529.49 70 529.49 74.8V106H518.642V76.432C518.642 71.696 517.458 68.08 515.09 65.584C512.722 63.024 509.49 61.744 505.394 61.744C501.298 61.744 498.034 63.024 495.602 65.584C493.234 68.08 492.05 71.696 492.05 76.432V106H481.106V34.96H492.05V59.248C493.906 57.008 496.242 55.28 499.058 54.064C501.938 52.848 505.074 52.24 508.466 52.24ZM591.93 78.256C591.93 80.24 591.802 82.032 591.546 83.632H551.13C551.45 87.856 553.018 91.248 555.834 93.808C558.65 96.368 562.106 97.648 566.202 97.648C572.09 97.648 576.25 95.184 578.682 90.256H590.49C588.89 95.12 585.978 99.12 581.754 102.256C577.594 105.328 572.41 106.864 566.202 106.864C561.146 106.864 556.602 105.744 552.57 103.504C548.602 101.2 545.466 98 543.162 93.904C540.922 89.744 539.802 84.944 539.802 79.504C539.802 74.064 540.89 69.296 543.066 65.2C545.306 61.04 548.41 57.84 552.378 55.6C556.41 53.36 561.018 52.24 566.202 52.24C571.194 52.24 575.642 53.328 579.546 55.504C583.45 57.68 586.49 60.752 588.666 64.72C590.842 68.624 591.93 73.136 591.93 78.256ZM580.506 74.8C580.442 70.768 579.002 67.536 576.186 65.104C573.37 62.672 569.882 61.456 565.722 61.456C561.946 61.456 558.714 62.672 556.026 65.104C553.338 67.472 551.738 70.704 551.226 74.8H580.506ZM613.644 60.784C615.244 58.096 617.356 56.016 619.98 54.544C622.668 53.008 625.836 52.24 629.484 52.24V63.568H626.7C622.412 63.568 619.148 64.656 616.908 66.832C614.732 69.008 613.644 72.784 613.644 78.16V106H602.7V53.104H613.644V60.784ZM688.024 78.256C688.024 80.24 687.896 82.032 687.64 83.632H647.224C647.544 87.856 649.112 91.248 651.928 93.808C654.744 96.368 658.2 97.648 662.296 97.648C668.184 97.648 672.344 95.184 674.776 90.256H686.584C684.984 95.12 682.072 99.12 677.848 102.256C673.688 105.328 668.504 106.864 662.296 106.864C657.24 106.864 652.696 105.744 648.664 103.504C644.696 101.2 641.56 98 639.256 93.904C637.016 89.744 635.896 84.944 635.896 79.504C635.896 74.064 636.984 69.296 639.16 65.2C641.4 61.04 644.504 57.84 648.472 55.6C652.504 53.36 657.112 52.24 662.296 52.24C667.288 52.24 671.736 53.328 675.64 55.504C679.544 57.68 682.584 60.752 684.76 64.72C686.936 68.624 688.024 73.136 688.024 78.256ZM676.6 74.8C676.536 70.768 675.096 67.536 672.28 65.104C669.464 62.672 665.976 61.456 661.816 61.456C658.04 61.456 654.808 62.672 652.12 65.104C649.432 67.472 647.832 70.704 647.32 74.8H676.6Z"/>
</mask>
<path d="M145.992 39.28C153.096 39.28 159.304 40.656 164.616 43.408C169.992 46.096 174.12 50 177 55.12C179.944 60.176 181.416 66.096 181.416 72.88C181.416 79.664 179.944 85.552 177 90.544C174.12 95.536 169.992 99.376 164.616 102.064C159.304 104.688 153.096 106 145.992 106H124.2V39.28H145.992ZM145.992 97.072C153.8 97.072 159.784 94.96 163.944 90.736C168.104 86.512 170.184 80.56 170.184 72.88C170.184 65.136 168.104 59.088 163.944 54.736C159.784 50.384 153.8 48.208 145.992 48.208H135.144V97.072H145.992ZM188.615 79.312C188.615 74 189.703 69.296 191.879 65.2C194.119 61.104 197.127 57.936 200.903 55.696C204.743 53.392 208.967 52.24 213.575 52.24C217.735 52.24 221.351 53.072 224.423 54.736C227.559 56.336 230.055 58.352 231.911 60.784V53.104H242.951V106H231.911V98.128C230.055 100.624 227.527 102.704 224.327 104.368C221.127 106.032 217.479 106.864 213.383 106.864C208.839 106.864 204.679 105.712 200.903 103.408C197.127 101.04 194.119 97.776 191.879 93.616C189.703 89.392 188.615 84.624 188.615 79.312ZM231.911 79.504C231.911 75.856 231.143 72.688 229.607 70C228.135 67.312 226.183 65.264 223.751 63.856C221.319 62.448 218.695 61.744 215.879 61.744C213.063 61.744 210.439 62.448 208.007 63.856C205.575 65.2 203.591 67.216 202.055 69.904C200.583 72.528 199.847 75.664 199.847 79.312C199.847 82.96 200.583 86.16 202.055 88.912C203.591 91.664 205.575 93.776 208.007 95.248C210.503 96.656 213.127 97.36 215.879 97.36C218.695 97.36 221.319 96.656 223.751 95.248C226.183 93.84 228.135 91.792 229.607 89.104C231.143 86.352 231.911 83.152 231.911 79.504ZM270.093 62.032V91.312C270.093 93.296 270.541 94.736 271.437 95.632C272.397 96.464 273.997 96.88 276.237 96.88H282.957V106H274.317C269.389 106 265.613 104.848 262.989 102.544C260.365 100.24 259.053 96.496 259.053 91.312V62.032H252.813V53.104H259.053V39.952H270.093V53.104H282.957V62.032H270.093ZM289.396 79.312C289.396 74 290.484 69.296 292.66 65.2C294.9 61.104 297.908 57.936 301.684 55.696C305.524 53.392 309.748 52.24 314.356 52.24C318.516 52.24 322.132 53.072 325.204 54.736C328.34 56.336 330.836 58.352 332.692 60.784V53.104H343.732V106H332.692V98.128C330.836 100.624 328.308 102.704 325.108 104.368C321.908 106.032 318.26 106.864 314.164 106.864C309.62 106.864 305.46 105.712 301.684 103.408C297.908 101.04 294.9 97.776 292.66 93.616C290.484 89.392 289.396 84.624 289.396 79.312ZM332.692 79.504C332.692 75.856 331.924 72.688 330.388 70C328.916 67.312 326.964 65.264 324.532 63.856C322.1 62.448 319.476 61.744 316.66 61.744C313.844 61.744 311.22 62.448 308.788 63.856C306.356 65.2 304.372 67.216 302.836 69.904C301.364 72.528 300.628 75.664 300.628 79.312C300.628 82.96 301.364 86.16 302.836 88.912C304.372 91.664 306.356 93.776 308.788 95.248C311.284 96.656 313.908 97.36 316.66 97.36C319.476 97.36 322.1 96.656 324.532 95.248C326.964 93.84 328.916 91.792 330.388 89.104C331.924 86.352 332.692 83.152 332.692 79.504ZM380.09 106.672C375.61 106.672 371.578 105.904 367.994 104.368C364.41 102.768 361.594 100.528 359.546 97.648C357.498 94.768 356.474 91.408 356.474 87.568H368.186C368.442 90.448 369.562 92.816 371.546 94.672C373.594 96.528 376.442 97.456 380.09 97.456C383.866 97.456 386.81 96.56 388.922 94.768C391.034 92.912 392.09 90.544 392.09 87.664C392.09 85.424 391.418 83.6 390.074 82.192C388.794 80.784 387.162 79.696 385.178 78.928C383.258 78.16 380.57 77.328 377.114 76.432C372.762 75.28 369.21 74.128 366.458 72.976C363.77 71.76 361.466 69.904 359.546 67.408C357.626 64.912 356.666 61.584 356.666 57.424C356.666 53.584 357.626 50.224 359.546 47.344C361.466 44.464 364.154 42.256 367.61 40.72C371.066 39.184 375.066 38.416 379.61 38.416C386.074 38.416 391.354 40.048 395.45 43.312C399.61 46.512 401.914 50.928 402.362 56.56H390.266C390.074 54.128 388.922 52.048 386.81 50.32C384.698 48.592 381.914 47.728 378.458 47.728C375.322 47.728 372.762 48.528 370.778 50.128C368.794 51.728 367.802 54.032 367.802 57.04C367.802 59.088 368.41 60.784 369.626 62.128C370.906 63.408 372.506 64.432 374.426 65.2C376.346 65.968 378.97 66.8 382.298 67.696C386.714 68.912 390.298 70.128 393.05 71.344C395.866 72.56 398.234 74.448 400.154 77.008C402.138 79.504 403.13 82.864 403.13 87.088C403.13 90.48 402.202 93.68 400.346 96.688C398.554 99.696 395.898 102.128 392.378 103.984C388.922 105.776 384.826 106.672 380.09 106.672ZM426.988 60.88C428.844 58.448 431.372 56.4 434.572 54.736C437.772 53.072 441.388 52.24 445.42 52.24C450.028 52.24 454.22 53.392 457.996 55.696C461.836 57.936 464.844 61.104 467.02 65.2C469.196 69.296 470.284 74 470.284 79.312C470.284 84.624 469.196 89.392 467.02 93.616C464.844 97.776 461.836 101.04 457.996 103.408C454.22 105.712 450.028 106.864 445.42 106.864C441.388 106.864 437.804 106.064 434.668 104.464C431.532 102.8 428.972 100.752 426.988 98.32V131.152H416.044V53.104H426.988V60.88ZM459.148 79.312C459.148 75.664 458.38 72.528 456.844 69.904C455.372 67.216 453.388 65.2 450.892 63.856C448.46 62.448 445.836 61.744 443.02 61.744C440.268 61.744 437.644 62.448 435.148 63.856C432.716 65.264 430.732 67.312 429.196 70C427.724 72.688 426.988 75.856 426.988 79.504C426.988 83.152 427.724 86.352 429.196 89.104C430.732 91.792 432.716 93.84 435.148 95.248C437.644 96.656 440.268 97.36 443.02 97.36C445.836 97.36 448.46 96.656 450.892 95.248C453.388 93.776 455.372 91.664 456.844 88.912C458.38 86.16 459.148 82.96 459.148 79.312ZM508.466 52.24C512.498 52.24 516.082 53.104 519.218 54.832C522.418 56.56 524.914 59.12 526.706 62.512C528.562 65.904 529.49 70 529.49 74.8V106H518.642V76.432C518.642 71.696 517.458 68.08 515.09 65.584C512.722 63.024 509.49 61.744 505.394 61.744C501.298 61.744 498.034 63.024 495.602 65.584C493.234 68.08 492.05 71.696 492.05 76.432V106H481.106V34.96H492.05V59.248C493.906 57.008 496.242 55.28 499.058 54.064C501.938 52.848 505.074 52.24 508.466 52.24ZM591.93 78.256C591.93 80.24 591.802 82.032 591.546 83.632H551.13C551.45 87.856 553.018 91.248 555.834 93.808C558.65 96.368 562.106 97.648 566.202 97.648C572.09 97.648 576.25 95.184 578.682 90.256H590.49C588.89 95.12 585.978 99.12 581.754 102.256C577.594 105.328 572.41 106.864 566.202 106.864C561.146 106.864 556.602 105.744 552.57 103.504C548.602 101.2 545.466 98 543.162 93.904C540.922 89.744 539.802 84.944 539.802 79.504C539.802 74.064 540.89 69.296 543.066 65.2C545.306 61.04 548.41 57.84 552.378 55.6C556.41 53.36 561.018 52.24 566.202 52.24C571.194 52.24 575.642 53.328 579.546 55.504C583.45 57.68 586.49 60.752 588.666 64.72C590.842 68.624 591.93 73.136 591.93 78.256ZM580.506 74.8C580.442 70.768 579.002 67.536 576.186 65.104C573.37 62.672 569.882 61.456 565.722 61.456C561.946 61.456 558.714 62.672 556.026 65.104C553.338 67.472 551.738 70.704 551.226 74.8H580.506ZM613.644 60.784C615.244 58.096 617.356 56.016 619.98 54.544C622.668 53.008 625.836 52.24 629.484 52.24V63.568H626.7C622.412 63.568 619.148 64.656 616.908 66.832C614.732 69.008 613.644 72.784 613.644 78.16V106H602.7V53.104H613.644V60.784ZM688.024 78.256C688.024 80.24 687.896 82.032 687.64 83.632H647.224C647.544 87.856 649.112 91.248 651.928 93.808C654.744 96.368 658.2 97.648 662.296 97.648C668.184 97.648 672.344 95.184 674.776 90.256H686.584C684.984 95.12 682.072 99.12 677.848 102.256C673.688 105.328 668.504 106.864 662.296 106.864C657.24 106.864 652.696 105.744 648.664 103.504C644.696 101.2 641.56 98 639.256 93.904C637.016 89.744 635.896 84.944 635.896 79.504C635.896 74.064 636.984 69.296 639.16 65.2C641.4 61.04 644.504 57.84 648.472 55.6C652.504 53.36 657.112 52.24 662.296 52.24C667.288 52.24 671.736 53.328 675.64 55.504C679.544 57.68 682.584 60.752 684.76 64.72C686.936 68.624 688.024 73.136 688.024 78.256ZM676.6 74.8C676.536 70.768 675.096 67.536 672.28 65.104C669.464 62.672 665.976 61.456 661.816 61.456C658.04 61.456 654.808 62.672 652.12 65.104C649.432 67.472 647.832 70.704 647.32 74.8H676.6Z" fill="white"/>
<path d="M164.616 43.408L164.156 44.2959L164.162 44.2992L164.169 44.3024L164.616 43.408ZM177 55.12L176.128 55.6103L176.132 55.6168L176.136 55.6232L177 55.12ZM177 90.544L176.139 90.036L176.134 90.0443L177 90.544ZM164.616 102.064L165.059 102.961L165.063 102.958L164.616 102.064ZM124.2 106H123.2V107H124.2V106ZM124.2 39.28V38.28H123.2V39.28H124.2ZM163.944 90.736L163.232 90.0343L163.232 90.0343L163.944 90.736ZM135.144 48.208V47.208H134.144V48.208H135.144ZM135.144 97.072H134.144V98.072H135.144V97.072ZM145.992 40.28C152.966 40.28 159.01 41.6302 164.156 44.2959L165.076 42.5201C159.598 39.6818 153.226 38.28 145.992 38.28V40.28ZM164.169 44.3024C169.371 46.9033 173.349 50.6686 176.128 55.6103L177.872 54.6297C174.891 49.3314 170.613 45.2887 165.063 42.5136L164.169 44.3024ZM176.136 55.6232C178.978 60.5035 180.416 66.2442 180.416 72.88H182.416C182.416 65.9478 180.91 59.8485 177.864 54.6168L176.136 55.6232ZM180.416 72.88C180.416 79.5161 178.977 85.2224 176.139 90.036L177.861 91.052C180.911 85.8816 182.416 79.8119 182.416 72.88H180.416ZM176.134 90.0443C173.356 94.859 169.377 98.5653 164.169 101.17L165.063 102.958C170.607 100.187 174.884 96.213 177.866 91.0437L176.134 90.0443ZM164.173 101.167C159.024 103.711 152.973 105 145.992 105V107C153.219 107 159.584 105.665 165.059 102.961L164.173 101.167ZM145.992 105H124.2V107H145.992V105ZM125.2 106V39.28H123.2V106H125.2ZM124.2 40.28H145.992V38.28H124.2V40.28ZM145.992 98.072C153.98 98.072 160.254 95.9074 164.656 91.4377L163.232 90.0343C159.314 94.0126 153.62 96.072 145.992 96.072V98.072ZM164.656 91.4377C169.051 86.976 171.184 80.7418 171.184 72.88H169.184C169.184 80.3782 167.157 86.048 163.232 90.0343L164.656 91.4377ZM171.184 72.88C171.184 64.9552 169.051 58.6319 164.667 54.045L163.221 55.427C167.157 59.5441 169.184 65.3168 169.184 72.88H171.184ZM164.667 54.045C160.266 49.4415 153.988 47.208 145.992 47.208V49.208C153.612 49.208 159.302 51.3265 163.221 55.427L164.667 54.045ZM145.992 47.208H135.144V49.208H145.992V47.208ZM134.144 48.208V97.072H136.144V48.208H134.144ZM135.144 98.072H145.992V96.072H135.144V98.072ZM191.879 65.2L191.001 64.7202L190.995 64.7308L191.879 65.2ZM200.903 55.696L201.413 56.5561L201.417 56.5535L200.903 55.696ZM224.423 54.736L223.946 55.6153L223.957 55.6212L223.968 55.6268L224.423 54.736ZM231.911 60.784L231.116 61.3907L232.911 63.7427V60.784H231.911ZM231.911 53.104V52.104H230.911V53.104H231.911ZM242.951 53.104H243.951V52.104H242.951V53.104ZM242.951 106V107H243.951V106H242.951ZM231.911 106H230.911V107H231.911V106ZM231.911 98.128H232.911V95.1073L231.108 97.5313L231.911 98.128ZM224.327 104.368L223.865 103.481L223.865 103.481L224.327 104.368ZM200.903 103.408L200.371 104.255L200.382 104.262L200.903 103.408ZM191.879 93.616L190.99 94.074L190.994 94.0821L190.998 94.0901L191.879 93.616ZM229.607 70L228.729 70.4803L228.734 70.4883L228.738 70.4961L229.607 70ZM223.751 63.856L223.249 64.7214L223.249 64.7214L223.751 63.856ZM208.007 63.856L208.49 64.7312L208.499 64.7264L208.508 64.7214L208.007 63.856ZM202.055 69.904L201.186 69.4078L201.182 69.4147L202.055 69.904ZM202.055 88.912L201.173 89.3837L201.177 89.3915L201.181 89.3994L202.055 88.912ZM208.007 95.248L207.489 96.1035L207.502 96.1114L207.515 96.119L208.007 95.248ZM223.751 95.248L224.252 96.1134L224.252 96.1134L223.751 95.248ZM229.607 89.104L228.733 88.6166L228.729 88.6237L229.607 89.104ZM189.615 79.312C189.615 74.1396 190.673 69.6009 192.762 65.6692L190.995 64.7308C188.732 68.9911 187.615 73.8604 187.615 79.312H189.615ZM192.756 65.6798C194.915 61.7308 197.801 58.6987 201.413 56.556L200.392 54.8359C196.452 57.1733 193.322 60.4772 191.001 64.7202L192.756 65.6798ZM201.417 56.5535C205.097 54.3455 209.142 53.24 213.575 53.24V51.24C208.791 51.24 204.388 52.4385 200.388 54.8385L201.417 56.5535ZM213.575 53.24C217.6 53.24 221.046 54.0443 223.946 55.6153L224.899 53.8567C221.655 52.0997 217.869 51.24 213.575 51.24V53.24ZM223.968 55.6268C226.991 57.169 229.363 59.0944 231.116 61.3907L232.705 60.1773C230.746 57.6096 228.126 55.503 224.877 53.8452L223.968 55.6268ZM232.911 60.784V53.104H230.911V60.784H232.911ZM231.911 54.104H242.951V52.104H231.911V54.104ZM241.951 53.104V106H243.951V53.104H241.951ZM242.951 105H231.911V107H242.951V105ZM232.911 106V98.128H230.911V106H232.911ZM231.108 97.5313C229.356 99.8879 226.952 101.875 223.865 103.481L224.788 105.255C228.101 103.533 230.753 101.36 232.713 98.7247L231.108 97.5313ZM223.865 103.481C220.826 105.061 217.34 105.864 213.383 105.864V107.864C217.617 107.864 221.427 107.003 224.788 105.255L223.865 103.481ZM213.383 105.864C209.017 105.864 205.038 104.76 201.423 102.554L200.382 104.262C204.319 106.664 208.66 107.864 213.383 107.864V105.864ZM201.434 102.561C197.813 100.29 194.922 97.1589 192.759 93.1419L190.998 94.0901C193.315 98.3931 196.44 101.79 200.371 104.255L201.434 102.561ZM192.767 93.158C190.673 89.0917 189.615 84.4837 189.615 79.312H187.615C187.615 84.7643 188.732 89.6923 190.99 94.074L192.767 93.158ZM232.911 79.504C232.911 75.7132 232.111 72.3679 230.475 69.5039L228.738 70.4961C230.174 73.0081 230.911 75.9988 230.911 79.504H232.911ZM230.484 69.5197C228.932 66.6864 226.856 64.4984 224.252 62.9906L223.249 64.7214C225.509 66.0296 227.337 67.9376 228.729 70.4803L230.484 69.5197ZM224.252 62.9906C221.667 61.4942 218.87 60.744 215.879 60.744V62.744C218.519 62.744 220.97 63.4018 223.249 64.7214L224.252 62.9906ZM215.879 60.744C212.887 60.744 210.09 61.4942 207.505 62.9906L208.508 64.7214C210.787 63.4018 213.238 62.744 215.879 62.744V60.744ZM207.523 62.9808C204.912 64.4233 202.803 66.5793 201.186 69.4079L202.923 70.4001C204.378 67.8527 206.237 65.9767 208.49 64.7312L207.523 62.9808ZM201.182 69.4147C199.61 72.2169 198.847 75.5289 198.847 79.312H200.847C200.847 75.7991 201.555 72.8391 202.927 70.3932L201.182 69.4147ZM198.847 79.312C198.847 83.0967 199.611 86.4638 201.173 89.3837L202.936 88.4403C201.554 85.8562 200.847 82.8233 200.847 79.312H198.847ZM201.181 89.3994C202.792 92.286 204.893 94.5322 207.489 96.1035L208.524 94.3925C206.256 93.0198 204.389 91.042 202.928 88.4246L201.181 89.3994ZM207.515 96.119C210.155 97.6079 212.947 98.36 215.879 98.36V96.36C213.306 96.36 210.85 95.7041 208.498 94.377L207.515 96.119ZM215.879 98.36C218.87 98.36 221.667 97.6098 224.252 96.1134L223.249 94.3826C220.97 95.7022 218.519 96.36 215.879 96.36V98.36ZM224.252 96.1134C226.856 94.6056 228.932 92.4176 230.484 89.5843L228.729 88.6237C227.337 91.1664 225.509 93.0744 223.249 94.3826L224.252 96.1134ZM230.48 89.5914C232.111 86.6684 232.911 83.2955 232.911 79.504H230.911C230.911 83.0085 230.174 86.0356 228.733 88.6166L230.48 89.5914ZM270.093 62.032V61.032H269.093V62.032H270.093ZM271.437 95.632L270.73 96.3391L270.755 96.3643L270.782 96.3877L271.437 95.632ZM282.957 96.88H283.957V95.88H282.957V96.88ZM282.957 106V107H283.957V106H282.957ZM262.989 102.544L262.329 103.295L262.329 103.295L262.989 102.544ZM259.053 62.032H260.053V61.032H259.053V62.032ZM252.813 62.032H251.813V63.032H252.813V62.032ZM252.813 53.104V52.104H251.813V53.104H252.813ZM259.053 53.104V54.104H260.053V53.104H259.053ZM259.053 39.952V38.952H258.053V39.952H259.053ZM270.093 39.952H271.093V38.952H270.093V39.952ZM270.093 53.104H269.093V54.104H270.093V53.104ZM282.957 53.104H283.957V52.104H282.957V53.104ZM282.957 62.032V63.032H283.957V62.032H282.957ZM269.093 62.032V91.312H271.093V62.032H269.093ZM269.093 91.312C269.093 93.4155 269.564 95.173 270.73 96.3391L272.144 94.9249C271.518 94.299 271.093 93.1765 271.093 91.312H269.093ZM270.782 96.3877C272.019 97.4596 273.922 97.88 276.237 97.88V95.88C274.072 95.88 272.775 95.4684 272.092 94.8763L270.782 96.3877ZM276.237 97.88H282.957V95.88H276.237V97.88ZM281.957 96.88V106H283.957V96.88H281.957ZM282.957 105H274.317V107H282.957V105ZM274.317 105C269.533 105 266.028 103.881 263.649 101.793L262.329 103.295C265.198 105.815 269.245 107 274.317 107V105ZM263.649 101.793C261.328 99.7551 260.053 96.3495 260.053 91.312H258.053C258.053 96.6425 259.402 100.725 262.329 103.295L263.649 101.793ZM260.053 91.312V62.032H258.053V91.312H260.053ZM259.053 61.032H252.813V63.032H259.053V61.032ZM253.813 62.032V53.104H251.813V62.032H253.813ZM252.813 54.104H259.053V52.104H252.813V54.104ZM260.053 53.104V39.952H258.053V53.104H260.053ZM259.053 40.952H270.093V38.952H259.053V40.952ZM269.093 39.952V53.104H271.093V39.952H269.093ZM270.093 54.104H282.957V52.104H270.093V54.104ZM281.957 53.104V62.032H283.957V53.104H281.957ZM282.957 61.032H270.093V63.032H282.957V61.032ZM292.66 65.2L291.782 64.7202L291.777 64.7308L292.66 65.2ZM301.684 55.696L302.194 56.5561L302.198 56.5535L301.684 55.696ZM325.204 54.736L324.727 55.6153L324.738 55.6212L324.749 55.6268L325.204 54.736ZM332.692 60.784L331.897 61.3907L333.692 63.7427V60.784H332.692ZM332.692 53.104V52.104H331.692V53.104H332.692ZM343.732 53.104H344.732V52.104H343.732V53.104ZM343.732 106V107H344.732V106H343.732ZM332.692 106H331.692V107H332.692V106ZM332.692 98.128H333.692V95.1073L331.889 97.5313L332.692 98.128ZM325.108 104.368L324.646 103.481L324.646 103.481L325.108 104.368ZM301.684 103.408L301.152 104.255L301.163 104.262L301.684 103.408ZM292.66 93.616L291.771 94.074L291.775 94.0821L291.779 94.0901L292.66 93.616ZM330.388 70L329.511 70.4803L329.515 70.4883L329.52 70.4961L330.388 70ZM324.532 63.856L324.031 64.7214L324.031 64.7214L324.532 63.856ZM308.788 63.856L309.271 64.7312L309.28 64.7264L309.289 64.7214L308.788 63.856ZM302.836 69.904L301.967 69.4078L301.964 69.4147L302.836 69.904ZM302.836 88.912L301.954 89.3837L301.958 89.3915L301.963 89.3994L302.836 88.912ZM308.788 95.248L308.27 96.1035L308.283 96.1114L308.296 96.119L308.788 95.248ZM324.532 95.248L325.033 96.1134L325.033 96.1134L324.532 95.248ZM330.388 89.104L329.515 88.6166L329.511 88.6237L330.388 89.104ZM290.396 79.312C290.396 74.1396 291.454 69.6009 293.543 65.6692L291.777 64.7308C289.513 68.9911 288.396 73.8604 288.396 79.312H290.396ZM293.537 65.6798C295.697 61.7308 298.582 58.6987 302.194 56.556L301.174 54.8359C297.233 57.1733 294.103 60.4772 291.782 64.7202L293.537 65.6798ZM302.198 56.5535C305.878 54.3455 309.923 53.24 314.356 53.24V51.24C309.572 51.24 305.169 52.4385 301.169 54.8385L302.198 56.5535ZM314.356 53.24C318.381 53.24 321.827 54.0443 324.727 55.6153L325.68 53.8567C322.436 52.0997 318.65 51.24 314.356 51.24V53.24ZM324.749 55.6268C327.772 57.169 330.144 59.0944 331.897 61.3907L333.487 60.1773C331.527 57.6096 328.907 55.503 325.658 53.8452L324.749 55.6268ZM333.692 60.784V53.104H331.692V60.784H333.692ZM332.692 54.104H343.732V52.104H332.692V54.104ZM342.732 53.104V106H344.732V53.104H342.732ZM343.732 105H332.692V107H343.732V105ZM333.692 106V98.128H331.692V106H333.692ZM331.889 97.5313C330.137 99.8879 327.734 101.875 324.646 103.481L325.569 105.255C328.882 103.533 331.535 101.36 333.494 98.7247L331.889 97.5313ZM324.646 103.481C321.607 105.061 318.121 105.864 314.164 105.864V107.864C318.398 107.864 322.208 107.003 325.569 105.255L324.646 103.481ZM314.164 105.864C309.798 105.864 305.819 104.76 302.205 102.554L301.163 104.262C305.1 106.664 309.441 107.864 314.164 107.864V105.864ZM302.215 102.561C298.595 100.29 295.703 97.1589 293.54 93.1419L291.779 94.0901C294.096 98.3931 297.221 101.79 301.152 104.255L302.215 102.561ZM293.549 93.158C291.454 89.0917 290.396 84.4837 290.396 79.312H288.396C288.396 84.7643 289.514 89.6923 291.771 94.074L293.549 93.158ZM333.692 79.504C333.692 75.7132 332.893 72.3679 331.256 69.5039L329.52 70.4961C330.955 73.0081 331.692 75.9988 331.692 79.504H333.692ZM331.265 69.5197C329.713 66.6864 327.637 64.4984 325.033 62.9906L324.031 64.7214C326.29 66.0296 328.118 67.9376 329.511 70.4803L331.265 69.5197ZM325.033 62.9906C322.448 61.4942 319.651 60.744 316.66 60.744V62.744C319.3 62.744 321.751 63.4018 324.031 64.7214L325.033 62.9906ZM316.66 60.744C313.668 60.744 310.871 61.4942 308.287 62.9906L309.289 64.7214C311.568 63.4018 314.019 62.744 316.66 62.744V60.744ZM308.304 62.9808C305.694 64.4233 303.584 66.5793 301.968 69.4079L303.704 70.4001C305.16 67.8527 307.018 65.9767 309.271 64.7312L308.304 62.9808ZM301.964 69.4147C300.392 72.2169 299.628 75.5289 299.628 79.312H301.628C301.628 75.7991 302.336 72.8391 303.708 70.3932L301.964 69.4147ZM299.628 79.312C299.628 83.0967 300.392 86.4638 301.954 89.3837L303.718 88.4403C302.335 85.8562 301.628 82.8233 301.628 79.312H299.628ZM301.963 89.3994C303.574 92.286 305.674 94.5322 308.27 96.1035L309.306 94.3925C307.038 93.0198 305.17 91.042 303.709 88.4246L301.963 89.3994ZM308.296 96.119C310.936 97.6079 313.728 98.36 316.66 98.36V96.36C314.087 96.36 311.632 95.7041 309.279 94.377L308.296 96.119ZM316.66 98.36C319.651 98.36 322.448 97.6098 325.033 96.1134L324.031 94.3826C321.751 95.7022 319.3 96.36 316.66 96.36V98.36ZM325.033 96.1134C327.637 94.6056 329.713 92.4176 331.265 89.5843L329.511 88.6237C328.118 91.1664 326.29 93.0744 324.031 94.3826L325.033 96.1134ZM331.261 89.5914C332.892 86.6684 333.692 83.2955 333.692 79.504H331.692C331.692 83.0085 330.955 86.0356 329.515 88.6166L331.261 89.5914ZM367.994 104.368L367.587 105.281L367.593 105.284L367.6 105.287L367.994 104.368ZM359.546 97.648L360.361 97.0685L360.361 97.0685L359.546 97.648ZM356.474 87.568V86.568H355.474V87.568H356.474ZM368.186 87.568L369.182 87.4795L369.101 86.568H368.186V87.568ZM371.546 94.672L370.863 95.4023L370.869 95.4077L370.875 95.413L371.546 94.672ZM388.922 94.768L389.569 95.5305L389.576 95.5249L389.582 95.5192L388.922 94.768ZM390.074 82.192L389.334 82.8647L389.342 82.8737L389.351 82.8825L390.074 82.192ZM385.178 78.928L384.807 79.8565L384.817 79.8606L385.178 78.928ZM377.114 76.432L376.858 77.3987L376.863 77.4L377.114 76.432ZM366.458 72.976L366.046 73.8871L366.059 73.893L366.072 73.8984L366.458 72.976ZM359.546 47.344L360.378 47.8987L360.378 47.8987L359.546 47.344ZM367.61 40.72L368.016 41.6338L368.016 41.6338L367.61 40.72ZM395.45 43.312L394.827 44.0941L394.834 44.0994L394.841 44.1046L395.45 43.312ZM402.362 56.56V57.56H403.445L403.359 56.4807L402.362 56.56ZM390.266 56.56L389.269 56.6387L389.342 57.56H390.266V56.56ZM370.778 50.128L371.406 50.9064L371.406 50.9064L370.778 50.128ZM369.626 62.128L368.885 62.7989L368.901 62.8174L368.919 62.8351L369.626 62.128ZM382.298 67.696L382.564 66.7319L382.558 66.7304L382.298 67.696ZM393.05 71.344L392.646 72.2587L392.654 72.2621L393.05 71.344ZM400.154 77.008L399.354 77.608L399.363 77.6192L399.371 77.6302L400.154 77.008ZM400.346 96.688L399.495 96.1629L399.491 96.1695L399.487 96.1762L400.346 96.688ZM392.378 103.984L392.839 104.872L392.845 104.869L392.378 103.984ZM380.09 105.672C375.726 105.672 371.831 104.924 368.388 103.449L367.6 105.287C371.326 106.884 375.495 107.672 380.09 107.672V105.672ZM368.402 103.455C364.963 101.919 362.295 99.7872 360.361 97.0685L358.731 98.2275C360.894 101.269 363.858 103.617 367.587 105.281L368.402 103.455ZM360.361 97.0685C358.444 94.3725 357.474 91.2192 357.474 87.568H355.474C355.474 91.5968 356.552 95.1635 358.731 98.2275L360.361 97.0685ZM356.474 88.568H368.186V86.568H356.474V88.568ZM367.19 87.6565C367.466 90.7645 368.687 93.3667 370.863 95.4023L372.229 93.9417C370.437 92.2653 369.418 90.1315 369.182 87.4795L367.19 87.6565ZM370.875 95.413C373.159 97.4831 376.275 98.456 380.09 98.456V96.456C376.609 96.456 374.029 95.5729 372.218 93.931L370.875 95.413ZM380.09 98.456C384.017 98.456 387.22 97.5236 389.569 95.5305L388.275 94.0055C386.4 95.5964 383.715 96.456 380.09 96.456V98.456ZM389.582 95.5192C391.916 93.4681 393.09 90.8236 393.09 87.664H391.09C391.09 90.2644 390.152 92.3559 388.262 94.0168L389.582 95.5192ZM393.09 87.664C393.09 85.2086 392.346 83.1237 390.798 81.5015L389.351 82.8825C390.49 84.0763 391.09 85.6394 391.09 87.664H393.09ZM390.814 81.5193C389.418 79.9835 387.651 78.8128 385.539 77.9954L384.817 79.8606C386.674 80.5792 388.171 81.5845 389.334 82.8647L390.814 81.5193ZM385.55 77.9995C383.572 77.2085 380.837 76.3642 377.365 75.464L376.863 77.4C380.303 78.2918 382.944 79.1115 384.807 79.8565L385.55 77.9995ZM377.37 75.4653C373.043 74.3198 369.539 73.1813 366.844 72.0536L366.072 73.8984C368.882 75.0747 372.482 76.2402 376.858 77.3987L377.37 75.4653ZM366.87 72.0649C364.342 70.9211 362.166 69.1731 360.339 66.7983L358.754 68.0177C360.767 70.6349 363.198 72.5989 366.046 73.8871L366.87 72.0649ZM360.339 66.7983C358.591 64.5259 357.666 61.4342 357.666 57.424H355.666C355.666 61.7338 356.662 65.2981 358.754 68.0177L360.339 66.7983ZM357.666 57.424C357.666 53.759 358.58 50.5967 360.378 47.8987L358.714 46.7893C356.673 49.8513 355.666 53.409 355.666 57.424H357.666ZM360.378 47.8987C362.184 45.1908 364.717 43.1003 368.016 41.6338L367.204 39.8062C363.592 41.4117 360.749 43.7372 358.714 46.7893L360.378 47.8987ZM368.016 41.6338C371.321 40.1649 375.178 39.416 379.61 39.416V37.416C374.954 37.416 370.811 38.2031 367.204 39.8062L368.016 41.6338ZM379.61 39.416C385.902 39.416 390.946 41.0017 394.827 44.0941L396.073 42.5299C391.762 39.0943 386.246 37.416 379.61 37.416V39.416ZM394.841 44.1046C398.758 47.118 400.938 51.2649 401.365 56.6393L403.359 56.4807C402.891 50.5911 400.463 45.906 396.06 42.5194L394.841 44.1046ZM402.362 55.56H390.266V57.56H402.362V55.56ZM391.263 56.4813C391.047 53.7442 389.739 51.4241 387.443 49.546L386.177 51.094C388.106 52.6719 389.101 54.5118 389.269 56.6387L391.263 56.4813ZM387.443 49.546C385.11 47.6365 382.082 46.728 378.458 46.728V48.728C381.746 48.728 384.287 49.5475 386.177 51.094L387.443 49.546ZM378.458 46.728C375.148 46.728 372.35 47.5755 370.15 49.3496L371.406 50.9064C373.174 49.4805 375.496 48.728 378.458 48.728V46.728ZM370.15 49.3496C367.888 51.1745 366.802 53.7904 366.802 57.04H368.802C368.802 54.2736 369.701 52.2814 371.406 50.9064L370.15 49.3496ZM366.802 57.04C366.802 59.3013 367.481 61.2469 368.885 62.7989L370.368 61.4571C369.34 60.3211 368.802 58.8747 368.802 57.04H366.802ZM368.919 62.8351C370.308 64.2236 372.027 65.3173 374.055 66.1285L374.798 64.2715C372.986 63.5467 371.505 62.5924 370.333 61.4209L368.919 62.8351ZM374.055 66.1285C376.027 66.9174 378.694 67.7612 382.038 68.6616L382.558 66.7304C379.247 65.8388 376.665 65.0186 374.798 64.2715L374.055 66.1285ZM382.033 68.6601C386.423 69.8691 389.956 71.0699 392.646 72.2587L393.454 70.4293C390.641 69.186 387.005 67.9549 382.564 66.7319L382.033 68.6601ZM392.654 72.2621C395.303 73.406 397.534 75.1811 399.354 77.608L400.954 76.408C398.934 73.7149 396.43 71.714 393.447 70.4259L392.654 72.2621ZM399.371 77.6302C401.175 79.8992 402.13 83.0164 402.13 87.088H404.13C404.13 82.7116 403.102 79.1088 400.937 76.3858L399.371 77.6302ZM402.13 87.088C402.13 90.2865 401.258 93.3058 399.495 96.1629L401.197 97.2131C403.146 94.0542 404.13 90.6735 404.13 87.088H402.13ZM399.487 96.1762C397.802 99.0055 395.292 101.317 391.912 103.099L392.845 104.869C396.505 102.939 399.307 100.387 401.205 97.1998L399.487 96.1762ZM391.918 103.096C388.632 104.8 384.7 105.672 380.09 105.672V107.672C384.952 107.672 389.213 106.752 392.839 104.872L391.918 103.096ZM426.988 60.88H425.988V63.8387L427.783 61.4867L426.988 60.88ZM434.572 54.736L434.11 53.8488L434.11 53.8488L434.572 54.736ZM457.996 55.696L457.475 56.5496L457.483 56.5548L457.492 56.5598L457.996 55.696ZM467.02 65.2L466.137 65.6692L466.137 65.6692L467.02 65.2ZM467.02 93.616L467.906 94.0795L467.909 94.074L467.02 93.616ZM457.996 103.408L458.517 104.262L458.521 104.259L457.996 103.408ZM434.668 104.464L434.199 105.347L434.206 105.351L434.213 105.355L434.668 104.464ZM426.988 98.32L427.763 97.6879L425.988 95.5122V98.32H426.988ZM426.988 131.152V132.152H427.988V131.152H426.988ZM416.044 131.152H415.044V132.152H416.044V131.152ZM416.044 53.104V52.104H415.044V53.104H416.044ZM426.988 53.104H427.988V52.104H426.988V53.104ZM456.844 69.904L455.967 70.3843L455.974 70.3968L455.981 70.4092L456.844 69.904ZM450.892 63.856L450.391 64.7214L450.404 64.7292L450.418 64.7365L450.892 63.856ZM435.148 63.856L434.656 62.985L434.647 62.9906L435.148 63.856ZM429.196 70L428.328 69.5039L428.323 69.5117L428.319 69.5197L429.196 70ZM429.196 89.104L428.314 89.5757L428.321 89.588L428.328 89.6001L429.196 89.104ZM435.148 95.248L434.647 96.1135L434.656 96.119L435.148 95.248ZM450.892 95.248L451.393 96.1135L451.4 96.1094L450.892 95.248ZM456.844 88.912L455.971 88.4246L455.966 88.4325L455.962 88.4403L456.844 88.912ZM427.783 61.4867C429.535 59.1907 431.94 57.2314 435.033 55.6232L434.11 53.8488C430.803 55.5686 428.153 57.7053 426.193 60.2733L427.783 61.4867ZM435.033 55.6232C438.074 54.0417 441.529 53.24 445.42 53.24V51.24C441.246 51.24 437.469 52.1023 434.11 53.8488L435.033 55.6232ZM445.42 53.24C449.852 53.24 453.862 54.3455 457.475 56.5496L458.517 54.8424C454.577 52.4385 450.203 51.24 445.42 51.24V53.24ZM457.492 56.5598C461.164 58.7019 464.044 61.7299 466.137 65.6692L467.903 64.7308C465.644 60.4781 462.507 57.1701 458.5 54.8322L457.492 56.5598ZM466.137 65.6692C468.225 69.6009 469.284 74.1396 469.284 79.312H471.284C471.284 73.8604 470.166 68.9911 467.903 64.7308L466.137 65.6692ZM469.284 79.312C469.284 84.4837 468.226 89.0917 466.131 93.158L467.909 94.074C470.166 89.6923 471.284 84.7643 471.284 79.312H469.284ZM466.134 93.1525C464.037 97.1599 461.151 100.287 457.471 102.557L458.521 104.259C462.52 101.793 465.65 98.3921 467.906 94.0795L466.134 93.1525ZM457.475 102.554C453.862 104.759 449.852 105.864 445.42 105.864V107.864C450.203 107.864 454.577 106.665 458.517 104.262L457.475 102.554ZM445.42 105.864C441.523 105.864 438.098 105.092 435.122 103.573L434.213 105.355C437.509 107.036 441.253 107.864 445.42 107.864V105.864ZM435.136 103.581C432.103 101.971 429.652 100.004 427.763 97.6879L426.213 98.9521C428.292 101.5 430.961 103.629 434.199 105.347L435.136 103.581ZM425.988 98.32V131.152H427.988V98.32H425.988ZM426.988 130.152H416.044V132.152H426.988V130.152ZM417.044 131.152V53.104H415.044V131.152H417.044ZM416.044 54.104H426.988V52.104H416.044V54.104ZM425.988 53.104V60.88H427.988V53.104H425.988ZM460.148 79.312C460.148 75.522 459.349 72.2041 457.707 69.3988L455.981 70.4092C457.411 72.8519 458.148 75.806 458.148 79.312H460.148ZM457.721 69.4237C456.164 66.5805 454.046 64.4186 451.366 62.9755L450.418 64.7365C452.73 65.9814 454.58 67.8515 455.967 70.3843L457.721 69.4237ZM451.393 62.9906C448.808 61.4942 446.011 60.744 443.02 60.744V62.744C445.66 62.744 448.111 63.4018 450.391 64.7214L451.393 62.9906ZM443.02 60.744C440.088 60.744 437.296 61.4961 434.656 62.985L435.639 64.727C437.992 63.3999 440.447 62.744 443.02 62.744V60.744ZM434.647 62.9906C432.047 64.4959 429.942 66.6785 428.328 69.5039L430.064 70.4961C431.522 67.9455 433.385 66.0321 435.649 64.7214L434.647 62.9906ZM428.319 69.5197C426.752 72.3806 425.988 75.72 425.988 79.504H427.988C427.988 75.992 428.696 72.9954 430.073 70.4803L428.319 69.5197ZM425.988 79.504C425.988 83.2887 426.752 86.6558 428.314 89.5757L430.078 88.6323C428.695 86.0482 427.988 83.0153 427.988 79.504H425.988ZM428.328 89.6001C429.942 92.4255 432.047 94.6081 434.647 96.1134L435.649 94.3826C433.385 93.0719 431.522 91.1585 430.064 88.6079L428.328 89.6001ZM434.656 96.119C437.296 97.6079 440.088 98.36 443.02 98.36V96.36C440.447 96.36 437.992 95.7041 435.639 94.377L434.656 96.119ZM443.02 98.36C446.011 98.36 448.808 97.6098 451.393 96.1134L450.391 94.3826C448.111 95.7022 445.66 96.36 443.02 96.36V98.36ZM451.4 96.1094C454.066 94.537 456.174 92.2844 457.726 89.3837L455.962 88.4403C454.57 91.0436 452.71 93.015 450.384 94.3866L451.4 96.1094ZM457.717 89.3994C459.348 86.4764 460.148 83.1035 460.148 79.312H458.148C458.148 82.8165 457.411 85.8436 455.971 88.4246L457.717 89.3994ZM519.218 54.832L518.736 55.7079L518.743 55.7119L519.218 54.832ZM526.706 62.512L525.822 62.9791L525.825 62.9856L525.829 62.992L526.706 62.512ZM529.49 106V107H530.49V106H529.49ZM518.642 106H517.642V107H518.642V106ZM515.09 65.584L514.356 66.2631L514.365 66.2723L515.09 65.584ZM495.602 65.584L494.877 64.8952L494.877 64.8957L495.602 65.584ZM492.05 106V107H493.05V106H492.05ZM481.106 106H480.106V107H481.106V106ZM481.106 34.96V33.96H480.106V34.96H481.106ZM492.05 34.96H493.05V33.96H492.05V34.96ZM492.05 59.248H491.05V62.0222L492.82 59.886L492.05 59.248ZM499.058 54.064L498.669 53.1427L498.662 53.1459L499.058 54.064ZM508.466 53.24C512.351 53.24 515.765 54.0711 518.736 55.7078L519.701 53.9562C516.399 52.1369 512.645 51.24 508.466 51.24V53.24ZM518.743 55.7119C521.759 57.3405 524.117 59.752 525.822 62.9791L527.59 62.0449C525.711 58.4879 523.077 55.7795 519.693 53.9521L518.743 55.7119ZM525.829 62.992C527.587 66.2054 528.49 70.1278 528.49 74.8H530.49C530.49 69.8722 529.537 65.6026 527.584 62.032L525.829 62.992ZM528.49 74.8V106H530.49V74.8H528.49ZM529.49 105H518.642V107H529.49V105ZM519.642 106V76.432H517.642V106H519.642ZM519.642 76.432C519.642 71.5376 518.417 67.638 515.816 64.8957L514.365 66.2723C516.499 68.522 517.642 71.8544 517.642 76.432H519.642ZM515.824 64.905C513.234 62.1044 509.716 60.744 505.394 60.744V62.744C509.265 62.744 512.211 63.9436 514.356 66.263L515.824 64.905ZM505.394 60.744C501.072 60.744 497.529 62.1043 494.877 64.8952L496.327 66.2727C498.54 63.9437 501.525 62.744 505.394 62.744V60.744ZM494.877 64.8957C492.275 67.638 491.05 71.5376 491.05 76.432H493.05C493.05 71.8544 494.193 68.522 496.328 66.2723L494.877 64.8957ZM491.05 76.432V106H493.05V76.432H491.05ZM492.05 105H481.106V107H492.05V105ZM482.106 106V34.96H480.106V106H482.106ZM481.106 35.96H492.05V33.96H481.106V35.96ZM491.05 34.96V59.248H493.05V34.96H491.05ZM492.82 59.886C494.57 57.7742 496.775 56.139 499.455 54.9821L498.662 53.1459C495.709 54.421 493.242 56.2418 491.28 58.61L492.82 59.886ZM499.447 54.9852C502.194 53.8255 505.196 53.24 508.466 53.24V51.24C504.952 51.24 501.683 51.8705 498.669 53.1427L499.447 54.9852ZM591.546 83.632V84.632H592.399L592.533 83.79L591.546 83.632ZM551.13 83.632V82.632H550.051L550.133 83.7075L551.13 83.632ZM555.834 93.808L555.161 94.5479L555.161 94.5479L555.834 93.808ZM578.682 90.256V89.256H578.06L577.785 89.8135L578.682 90.256ZM590.49 90.256L591.44 90.5685L591.872 89.256H590.49V90.256ZM581.754 102.256L582.348 103.06L582.35 103.059L581.754 102.256ZM552.57 103.504L552.068 104.369L552.076 104.374L552.084 104.378L552.57 103.504ZM543.162 93.904L542.282 94.3781L542.286 94.3862L542.29 94.3943L543.162 93.904ZM543.066 65.2L542.186 64.7259L542.183 64.7308L543.066 65.2ZM552.378 55.6L551.892 54.7258L551.886 54.7292L552.378 55.6ZM579.546 55.504L580.033 54.6305L580.033 54.6305L579.546 55.504ZM588.666 64.72L587.789 65.2008L587.793 65.2069L588.666 64.72ZM580.506 74.8V75.8H581.522L581.506 74.7841L580.506 74.8ZM576.186 65.104L576.84 64.3472L576.84 64.3472L576.186 65.104ZM556.026 65.104L556.687 65.8544L556.697 65.8455L556.026 65.104ZM551.226 74.8L550.234 74.676L550.093 75.8H551.226V74.8ZM590.93 78.256C590.93 80.1984 590.805 81.9363 590.559 83.474L592.533 83.79C592.799 82.1277 592.93 80.2816 592.93 78.256H590.93ZM591.546 82.632H551.13V84.632H591.546V82.632ZM550.133 83.7075C550.47 88.155 552.134 91.7961 555.161 94.5479L556.507 93.0681C553.902 90.6999 552.43 87.5569 552.127 83.5565L550.133 83.7075ZM555.161 94.5479C558.176 97.2887 561.878 98.648 566.202 98.648V96.648C562.334 96.648 559.124 95.4473 556.507 93.0681L555.161 94.5479ZM566.202 98.648C569.286 98.648 571.983 98.0018 574.248 96.6604C576.516 95.3166 578.289 93.312 579.579 90.6985L577.785 89.8135C576.643 92.128 575.12 93.8194 573.228 94.9396C571.333 96.0622 569.006 96.648 566.202 96.648V98.648ZM578.682 91.256H590.49V89.256H578.682V91.256ZM589.54 89.9435C588.006 94.6058 585.221 98.4365 581.158 101.453L582.35 103.059C586.735 99.8035 589.774 95.6342 591.44 90.5685L589.54 89.9435ZM581.16 101.452C577.204 104.373 572.24 105.864 566.202 105.864V107.864C572.58 107.864 577.984 106.283 582.348 103.06L581.16 101.452ZM566.202 105.864C561.299 105.864 556.925 104.78 553.056 102.63L552.084 104.378C556.279 106.708 560.993 107.864 566.202 107.864V105.864ZM553.072 102.639C549.262 100.427 546.252 97.3581 544.034 93.4137L542.29 94.3943C544.68 98.6419 547.942 101.973 552.068 104.369L553.072 102.639ZM544.042 93.4299C541.892 89.4363 540.802 84.8038 540.802 79.504H538.802C538.802 85.0842 539.952 90.0517 542.282 94.3781L544.042 93.4299ZM540.802 79.504C540.802 74.1993 541.862 69.5976 543.949 65.6692L542.183 64.7308C539.918 68.9944 538.802 73.9287 538.802 79.504H540.802ZM543.946 65.6741C546.1 61.674 549.072 58.6144 552.87 56.4708L551.886 54.7292C547.748 57.0656 544.512 60.406 542.186 64.7259L543.946 65.6741ZM552.864 56.4742C556.729 54.3265 561.167 53.24 566.202 53.24V51.24C560.869 51.24 556.091 52.3935 551.892 54.7258L552.864 56.4742ZM566.202 53.24C571.044 53.24 575.321 54.2938 579.059 56.3775L580.033 54.6305C575.963 52.3622 571.344 51.24 566.202 51.24V53.24ZM579.059 56.3775C582.797 58.4607 585.702 61.3956 587.789 65.2008L589.543 64.2392C587.278 60.1084 584.103 56.8993 580.033 54.6305L579.059 56.3775ZM587.793 65.2069C589.874 68.9415 590.93 73.2813 590.93 78.256H592.93C592.93 72.9907 591.81 68.3065 589.539 64.2331L587.793 65.2069ZM581.506 74.7841C581.438 70.4939 579.891 66.9824 576.84 64.3472L575.532 65.8608C578.113 68.0896 579.446 71.0421 579.506 74.8159L581.506 74.7841ZM576.84 64.3472C573.82 61.7396 570.092 60.456 565.722 60.456V62.456C569.672 62.456 572.92 63.6044 575.532 65.8608L576.84 64.3472ZM565.722 60.456C561.709 60.456 558.235 61.7566 555.355 64.3625L556.697 65.8455C559.193 63.5873 562.183 62.456 565.722 62.456V60.456ZM555.365 64.3536C552.466 66.9074 550.771 70.377 550.234 74.676L552.218 74.924C552.705 71.031 554.21 68.0366 556.687 65.8544L555.365 64.3536ZM551.226 75.8H580.506V73.8H551.226V75.8ZM613.644 60.784H612.644V64.4191L614.503 61.2955L613.644 60.784ZM619.98 54.544L620.469 55.4162L620.476 55.4122L619.98 54.544ZM629.484 52.24H630.484V51.24H629.484V52.24ZM629.484 63.568V64.568H630.484V63.568H629.484ZM616.908 66.832L616.211 66.1147L616.206 66.1198L616.201 66.1249L616.908 66.832ZM613.644 106V107H614.644V106H613.644ZM602.7 106H601.7V107H602.7V106ZM602.7 53.104V52.104H601.7V53.104H602.7ZM613.644 53.104H614.644V52.104H613.644V53.104ZM614.503 61.2955C616.017 58.7518 618.004 56.7989 620.469 55.4161L619.491 53.6719C616.708 55.2331 614.471 57.4402 612.785 60.2725L614.503 61.2955ZM620.476 55.4122C622.988 53.9769 625.979 53.24 629.484 53.24V51.24C625.693 51.24 622.348 52.0391 619.484 53.6758L620.476 55.4122ZM628.484 52.24V63.568H630.484V52.24H628.484ZM629.484 62.568H626.7V64.568H629.484V62.568ZM626.7 62.568C622.251 62.568 618.698 63.6986 616.211 66.1147L617.605 67.5493C619.598 65.6134 622.573 64.568 626.7 64.568V62.568ZM616.201 66.1249C613.739 68.5872 612.644 72.7022 612.644 78.16H614.644C614.644 72.8658 615.725 69.4288 617.615 67.5391L616.201 66.1249ZM612.644 78.16V106H614.644V78.16H612.644ZM613.644 105H602.7V107H613.644V105ZM603.7 106V53.104H601.7V106H603.7ZM602.7 54.104H613.644V52.104H602.7V54.104ZM612.644 53.104V60.784H614.644V53.104H612.644ZM687.64 83.632V84.632H688.492L688.627 83.79L687.64 83.632ZM647.224 83.632V82.632H646.145L646.227 83.7075L647.224 83.632ZM651.928 93.808L651.255 94.5479L651.255 94.5479L651.928 93.808ZM674.776 90.256V89.256H674.154L673.879 89.8135L674.776 90.256ZM686.584 90.256L687.534 90.5685L687.965 89.256H686.584V90.256ZM677.848 102.256L678.442 103.06L678.444 103.059L677.848 102.256ZM648.664 103.504L648.162 104.369L648.17 104.374L648.178 104.378L648.664 103.504ZM639.256 93.904L638.375 94.3781L638.38 94.3862L638.384 94.3943L639.256 93.904ZM639.16 65.2L638.279 64.7259L638.277 64.7308L639.16 65.2ZM648.472 55.6L647.986 54.7258L647.98 54.7292L648.472 55.6ZM675.64 55.504L676.127 54.6305L676.127 54.6305L675.64 55.504ZM684.76 64.72L683.883 65.2008L683.886 65.2069L684.76 64.72ZM676.6 74.8V75.8H677.616L677.6 74.7841L676.6 74.8ZM672.28 65.104L672.933 64.3472L672.933 64.3472L672.28 65.104ZM652.12 65.104L652.781 65.8544L652.791 65.8455L652.12 65.104ZM647.32 74.8L646.327 74.676L646.187 75.8H647.32V74.8ZM687.024 78.256C687.024 80.1984 686.898 81.9363 686.652 83.474L688.627 83.79C688.893 82.1277 689.024 80.2816 689.024 78.256H687.024ZM687.64 82.632H647.224V84.632H687.64V82.632ZM646.227 83.7075C646.564 88.155 648.228 91.7961 651.255 94.5479L652.6 93.0681C649.995 90.6999 648.524 87.5569 648.221 83.5565L646.227 83.7075ZM651.255 94.5479C654.27 97.2887 657.972 98.648 662.296 98.648V96.648C658.428 96.648 655.218 95.4473 652.6 93.0681L651.255 94.5479ZM662.296 98.648C665.38 98.648 668.077 98.0018 670.341 96.6604C672.61 95.3166 674.383 93.312 675.672 90.6985L673.879 89.8135C672.737 92.128 671.213 93.8194 669.322 94.9396C667.427 96.0622 665.099 96.648 662.296 96.648V98.648ZM674.776 91.256H686.584V89.256H674.776V91.256ZM685.634 89.9435C684.1 94.6058 681.315 98.4365 677.252 101.453L678.444 103.059C682.829 99.8035 685.867 95.6342 687.534 90.5685L685.634 89.9435ZM677.254 101.452C673.298 104.373 668.334 105.864 662.296 105.864V107.864C668.674 107.864 674.077 106.283 678.442 103.06L677.254 101.452ZM662.296 105.864C657.393 105.864 653.019 104.78 649.149 102.63L648.178 104.378C652.373 106.708 657.087 107.864 662.296 107.864V105.864ZM649.166 102.639C645.356 100.427 642.346 97.3581 640.127 93.4137L638.384 94.3943C640.773 98.6419 644.035 101.973 648.162 104.369L649.166 102.639ZM640.136 93.4299C637.986 89.4363 636.896 84.8038 636.896 79.504H634.896C634.896 85.0842 636.046 90.0517 638.375 94.3781L640.136 93.4299ZM636.896 79.504C636.896 74.1993 637.956 69.5976 640.043 65.6692L638.277 64.7308C636.012 68.9944 634.896 73.9287 634.896 79.504H636.896ZM640.04 65.6741C642.194 61.674 645.166 58.6144 648.963 56.4708L647.98 54.7292C643.841 57.0656 640.605 60.406 638.279 64.7259L640.04 65.6741ZM648.957 56.4742C652.823 54.3265 657.26 53.24 662.296 53.24V51.24C656.963 51.24 652.184 52.3935 647.986 54.7258L648.957 56.4742ZM662.296 53.24C667.138 53.24 671.415 54.2938 675.153 56.3775L676.127 54.6305C672.057 52.3622 667.438 51.24 662.296 51.24V53.24ZM675.153 56.3775C678.89 58.4607 681.796 61.3956 683.883 65.2008L685.637 64.2392C683.371 60.1084 680.197 56.8993 676.127 54.6305L675.153 56.3775ZM683.886 65.2069C685.968 68.9415 687.024 73.2813 687.024 78.256H689.024C689.024 72.9907 687.904 68.3065 685.633 64.2331L683.886 65.2069ZM677.6 74.7841C677.532 70.4939 675.985 66.9824 672.933 64.3472L671.626 65.8608C674.207 68.0896 675.54 71.0421 675.6 74.8159L677.6 74.7841ZM672.933 64.3472C669.914 61.7396 666.185 60.456 661.816 60.456V62.456C665.766 62.456 669.013 63.6044 671.626 65.8608L672.933 64.3472ZM661.816 60.456C657.803 60.456 654.329 61.7566 651.449 64.3625L652.791 65.8455C655.287 63.5873 658.276 62.456 661.816 62.456V60.456ZM651.459 64.3536C648.56 66.9074 646.865 70.377 646.327 74.676L648.312 74.924C648.799 71.031 650.304 68.0366 652.781 65.8544L651.459 64.3536ZM647.32 75.8H676.6V73.8H647.32V75.8Z" fill="white" mask="url(#path-1-outside-1_508_37)"/>
<path d="M50.1242 30C75.6109 30 95.9997 49.5664 95.9997 73.3755C95.9997 83.017 92.6734 91.9379 87.0182 99.1586C79.7266 63.3779 49.9346 41.6769 17.1364 43.2338C25.4637 35.0882 37.1492 30 50.1242 30Z" stroke="white" stroke-width="6"/>
<path d="M20.7917 63.948C14.9162 82.5795 12.2769 92.485 27.7724 118.999C-9.5852 100.162 0.364407 69.1868 9.15457 48.8672C46.0053 48.8675 69.6672 55.6538 83.2438 106.176C67.0086 70.9883 54.0925 65.2762 20.7917 63.948Z" fill="white" stroke="white"/>
</svg>
