<svg width="695" height="132" viewBox="0 0 695 132" fill="none" xmlns="http://www.w3.org/2000/svg">
<path d="M145.992 39.28C153.096 39.28 159.304 40.656 164.616 43.408C169.992 46.096 174.12 50 177 55.12C179.944 60.176 181.416 66.096 181.416 72.88C181.416 79.664 179.944 85.552 177 90.544C174.12 95.536 169.992 99.376 164.616 102.064C159.304 104.688 153.096 106 145.992 106H124.2V39.28H145.992ZM145.992 97.072C153.8 97.072 159.784 94.96 163.944 90.736C168.104 86.512 170.184 80.56 170.184 72.88C170.184 65.136 168.104 59.088 163.944 54.736C159.784 50.384 153.8 48.208 145.992 48.208H135.144V97.072H145.992ZM188.615 79.312C188.615 74 189.703 69.296 191.879 65.2C194.119 61.104 197.127 57.936 200.903 55.696C204.743 53.392 208.967 52.24 213.575 52.24C217.735 52.24 221.351 53.072 224.423 54.736C227.559 56.336 230.055 58.352 231.911 60.784V53.104H242.951V106H231.911V98.128C230.055 100.624 227.527 102.704 224.327 104.368C221.127 106.032 217.479 106.864 213.383 106.864C208.839 106.864 204.679 105.712 200.903 103.408C197.127 101.04 194.119 97.776 191.879 93.616C189.703 89.392 188.615 84.624 188.615 79.312ZM231.911 79.504C231.911 75.856 231.143 72.688 229.607 70C228.135 67.312 226.183 65.264 223.751 63.856C221.319 62.448 218.695 61.744 215.879 61.744C213.063 61.744 210.439 62.448 208.007 63.856C205.575 65.2 203.591 67.216 202.055 69.904C200.583 72.528 199.847 75.664 199.847 79.312C199.847 82.96 200.583 86.16 202.055 88.912C203.591 91.664 205.575 93.776 208.007 95.248C210.503 96.656 213.127 97.36 215.879 97.36C218.695 97.36 221.319 96.656 223.751 95.248C226.183 93.84 228.135 91.792 229.607 89.104C231.143 86.352 231.911 83.152 231.911 79.504ZM270.093 62.032V91.312C270.093 93.296 270.541 94.736 271.437 95.632C272.397 96.464 273.997 96.88 276.237 96.88H282.957V106H274.317C269.389 106 265.613 104.848 262.989 102.544C260.365 100.24 259.053 96.496 259.053 91.312V62.032H252.813V53.104H259.053V39.952H270.093V53.104H282.957V62.032H270.093ZM289.396 79.312C289.396 74 290.484 69.296 292.66 65.2C294.9 61.104 297.908 57.936 301.684 55.696C305.524 53.392 309.748 52.24 314.356 52.24C318.516 52.24 322.132 53.072 325.204 54.736C328.34 56.336 330.836 58.352 332.692 60.784V53.104H343.732V106H332.692V98.128C330.836 100.624 328.308 102.704 325.108 104.368C321.908 106.032 318.26 106.864 314.164 106.864C309.62 106.864 305.46 105.712 301.684 103.408C297.908 101.04 294.9 97.776 292.66 93.616C290.484 89.392 289.396 84.624 289.396 79.312ZM332.692 79.504C332.692 75.856 331.924 72.688 330.388 70C328.916 67.312 326.964 65.264 324.532 63.856C322.1 62.448 319.476 61.744 316.66 61.744C313.844 61.744 311.22 62.448 308.788 63.856C306.356 65.2 304.372 67.216 302.836 69.904C301.364 72.528 300.628 75.664 300.628 79.312C300.628 82.96 301.364 86.16 302.836 88.912C304.372 91.664 306.356 93.776 308.788 95.248C311.284 96.656 313.908 97.36 316.66 97.36C319.476 97.36 322.1 96.656 324.532 95.248C326.964 93.84 328.916 91.792 330.388 89.104C331.924 86.352 332.692 83.152 332.692 79.504ZM380.09 106.672C375.61 106.672 371.578 105.904 367.994 104.368C364.41 102.768 361.594 100.528 359.546 97.648C357.498 94.768 356.474 91.408 356.474 87.568H368.186C368.442 90.448 369.562 92.816 371.546 94.672C373.594 96.528 376.442 97.456 380.09 97.456C383.866 97.456 386.81 96.56 388.922 94.768C391.034 92.912 392.09 90.544 392.09 87.664C392.09 85.424 391.418 83.6 390.074 82.192C388.794 80.784 387.162 79.696 385.178 78.928C383.258 78.16 380.57 77.328 377.114 76.432C372.762 75.28 369.21 74.128 366.458 72.976C363.77 71.76 361.466 69.904 359.546 67.408C357.626 64.912 356.666 61.584 356.666 57.424C356.666 53.584 357.626 50.224 359.546 47.344C361.466 44.464 364.154 42.256 367.61 40.72C371.066 39.184 375.066 38.416 379.61 38.416C386.074 38.416 391.354 40.048 395.45 43.312C399.61 46.512 401.914 50.928 402.362 56.56H390.266C390.074 54.128 388.922 52.048 386.81 50.32C384.698 48.592 381.914 47.728 378.458 47.728C375.322 47.728 372.762 48.528 370.778 50.128C368.794 51.728 367.802 54.032 367.802 57.04C367.802 59.088 368.41 60.784 369.626 62.128C370.906 63.408 372.506 64.432 374.426 65.2C376.346 65.968 378.97 66.8 382.298 67.696C386.714 68.912 390.298 70.128 393.05 71.344C395.866 72.56 398.234 74.448 400.154 77.008C402.138 79.504 403.13 82.864 403.13 87.088C403.13 90.48 402.202 93.68 400.346 96.688C398.554 99.696 395.898 102.128 392.378 103.984C388.922 105.776 384.826 106.672 380.09 106.672ZM426.988 60.88C428.844 58.448 431.372 56.4 434.572 54.736C437.772 53.072 441.388 52.24 445.42 52.24C450.028 52.24 454.22 53.392 457.996 55.696C461.836 57.936 464.844 61.104 467.02 65.2C469.196 69.296 470.284 74 470.284 79.312C470.284 84.624 469.196 89.392 467.02 93.616C464.844 97.776 461.836 101.04 457.996 103.408C454.22 105.712 450.028 106.864 445.42 106.864C441.388 106.864 437.804 106.064 434.668 104.464C431.532 102.8 428.972 100.752 426.988 98.32V131.152H416.044V53.104H426.988V60.88ZM459.148 79.312C459.148 75.664 458.38 72.528 456.844 69.904C455.372 67.216 453.388 65.2 450.892 63.856C448.46 62.448 445.836 61.744 443.02 61.744C440.268 61.744 437.644 62.448 435.148 63.856C432.716 65.264 430.732 67.312 429.196 70C427.724 72.688 426.988 75.856 426.988 79.504C426.988 83.152 427.724 86.352 429.196 89.104C430.732 91.792 432.716 93.84 435.148 95.248C437.644 96.656 440.268 97.36 443.02 97.36C445.836 97.36 448.46 96.656 450.892 95.248C453.388 93.776 455.372 91.664 456.844 88.912C458.38 86.16 459.148 82.96 459.148 79.312ZM508.466 52.24C512.498 52.24 516.082 53.104 519.218 54.832C522.418 56.56 524.914 59.12 526.706 62.512C528.562 65.904 529.49 70 529.49 74.8V106H518.642V76.432C518.642 71.696 517.458 68.08 515.09 65.584C512.722 63.024 509.49 61.744 505.394 61.744C501.298 61.744 498.034 63.024 495.602 65.584C493.234 68.08 492.05 71.696 492.05 76.432V106H481.106V34.96H492.05V59.248C493.906 57.008 496.242 55.28 499.058 54.064C501.938 52.848 505.074 52.24 508.466 52.24ZM591.93 78.256C591.93 80.24 591.802 82.032 591.546 83.632H551.13C551.45 87.856 553.018 91.248 555.834 93.808C558.65 96.368 562.106 97.648 566.202 97.648C572.09 97.648 576.25 95.184 578.682 90.256H590.49C588.89 95.12 585.978 99.12 581.754 102.256C577.594 105.328 572.41 106.864 566.202 106.864C561.146 106.864 556.602 105.744 552.57 103.504C548.602 101.2 545.466 98 543.162 93.904C540.922 89.744 539.802 84.944 539.802 79.504C539.802 74.064 540.89 69.296 543.066 65.2C545.306 61.04 548.41 57.84 552.378 55.6C556.41 53.36 561.018 52.24 566.202 52.24C571.194 52.24 575.642 53.328 579.546 55.504C583.45 57.68 586.49 60.752 588.666 64.72C590.842 68.624 591.93 73.136 591.93 78.256ZM580.506 74.8C580.442 70.768 579.002 67.536 576.186 65.104C573.37 62.672 569.882 61.456 565.722 61.456C561.946 61.456 558.714 62.672 556.026 65.104C553.338 67.472 551.738 70.704 551.226 74.8H580.506ZM613.644 60.784C615.244 58.096 617.356 56.016 619.98 54.544C622.668 53.008 625.836 52.24 629.484 52.24V63.568H626.7C622.412 63.568 619.148 64.656 616.908 66.832C614.732 69.008 613.644 72.784 613.644 78.16V106H602.7V53.104H613.644V60.784ZM688.024 78.256C688.024 80.24 687.896 82.032 687.64 83.632H647.224C647.544 87.856 649.112 91.248 651.928 93.808C654.744 96.368 658.2 97.648 662.296 97.648C668.184 97.648 672.344 95.184 674.776 90.256H686.584C684.984 95.12 682.072 99.12 677.848 102.256C673.688 105.328 668.504 106.864 662.296 106.864C657.24 106.864 652.696 105.744 648.664 103.504C644.696 101.2 641.56 98 639.256 93.904C637.016 89.744 635.896 84.944 635.896 79.504C635.896 74.064 636.984 69.296 639.16 65.2C641.4 61.04 644.504 57.84 648.472 55.6C652.504 53.36 657.112 52.24 662.296 52.24C667.288 52.24 671.736 53.328 675.64 55.504C679.544 57.68 682.584 60.752 684.76 64.72C686.936 68.624 688.024 73.136 688.024 78.256ZM676.6 74.8C676.536 70.768 675.096 67.536 672.28 65.104C669.464 62.672 665.976 61.456 661.816 61.456C658.04 61.456 654.808 62.672 652.12 65.104C649.432 67.472 647.832 70.704 647.32 74.8H676.6Z" fill="#262626"/>
<path d="M50.1242 30C75.6109 30 95.9997 49.5664 95.9997 73.3755C95.9997 83.017 92.6734 91.9379 87.0182 99.1586C79.7266 63.3779 49.9346 41.6769 17.1364 43.2338C25.4637 35.0882 37.1492 30 50.1242 30Z" stroke="black" stroke-width="6"/>
<path d="M20.7917 63.948C14.9162 82.5795 12.2769 92.485 27.7724 118.999C-9.5852 100.162 0.364407 69.1868 9.15457 48.8672C46.0053 48.8675 69.6672 55.6538 83.2438 106.176C67.0086 70.9883 54.0925 65.2762 20.7917 63.948Z" fill="#080808" stroke="black"/>
</svg>
